<svg viewBox="0 0 400 160" width="400" height="160">
  <line x1="20" y1="80" x2="380" y2="80" stroke="var(--text2)" stroke-width="1.5"/>
  
  <path d="M 40 80 Q 75 20 110 80 T 180 80 T 250 80 T 320 80 T 390 80" fill="none" stroke="#0969da" stroke-width="2.5"/>
  <path d="M 40 80 Q 75 140 110 80 T 180 80 T 250 80 T 320 80 T 390 80" fill="none" stroke="#0969da" stroke-width="2" stroke-dasharray="6,4"/>

  <line x1="75" y1="40" x2="75" y2="120" stroke="#2da44e" stroke-width="1.5" stroke-dasharray="3"/>
  <circle cx="75" cy="50" r="4" fill="#2da44e"/>
  <circle cx="145" cy="110" r="4" fill="#2da44e"/>
  <circle cx="215" cy="50" r="4" fill="#2da44e"/>
  <circle cx="285" cy="110" r="4" fill="#2da44e"/>
  <circle cx="355" cy="50" r="4" fill="#2da44e"/>
  <text x="75" y="25" font-size="11" fill="#2da44e" font-weight="bold" text-anchor="middle">Пучность</text>

  <circle cx="40" cy="80" r="5" fill="#cf222e"/>
  <circle cx="110" cy="80" r="5" fill="#cf222e"/>
  <circle cx="180" cy="80" r="5" fill="#cf222e"/>
  <circle cx="250" cy="80" r="5" fill="#cf222e"/>
  <circle cx="320" cy="80" r="5" fill="#cf222e"/>
  <circle cx="390" cy="80" r="5" fill="#cf222e"/>
  <text x="110" y="100" font-size="11" fill="#cf222e" font-weight="bold" text-anchor="middle">Узел</text>

  <line x1="110" y1="140" x2="250" y2="140" stroke="var(--text2)" stroke-width="2"/>
  <line x1="110" y1="135" x2="110" y2="145" stroke="var(--text2)" stroke-width="2"/>
  <line x1="250" y1="135" x2="250" y2="145" stroke="var(--text2)" stroke-width="2"/>
  <text x="180" y="155" font-size="12" fill="var(--text2)" font-weight="bold" text-anchor="middle">λ (Длина волны)</text>
</svg>