<svg viewBox="0 0 400 160" width="400" height="160">
  <line x1="40" y1="145" x2="380" y2="145" stroke="var(--text2)" stroke-width="1"/>
  <line x1="40" y1="10" x2="40" y2="145" stroke="var(--text2)" stroke-width="1"/>
  <text x="385" y="148" font-size="9" fill="var(--text2)">ω</text>
  <text x="20" y="15" font-size="9" fill="var(--text2)">A</text>

  <!-- Малое β — острый резонанс -->
  <path d="M40 140 Q60 138 80 135 Q120 125 160 90 Q190 55 210 25 Q215 20 220 25 Q230 40 250 75 Q280 115 320 130 Q360 138 380 140" fill="none" stroke="#0969da" stroke-width="2.5"/>
  <!-- Среднее β -->
  <path d="M40 140 Q80 137 120 130 Q160 118 200 85 Q210 70 215 80 Q225 100 260 120 Q300 135 380 140" fill="none" stroke="#57ab5a" stroke-width="1.5" stroke-dasharray="5"/>
  <!-- Большое β -->
  <path d="M40 138 Q100 132 160 115 Q190 100 200 100 Q210 100 240 115 Q300 132 380 140" fill="none" stroke="#e5534b" stroke-width="1.5" stroke-dasharray="3"/>

  <line x1="215" y1="145" x2="215" y2="20" stroke="var(--text2)" stroke-width="0.8" stroke-dasharray="3"/>
  <text x="205" y="158" font-size="9" fill="var(--text2)">ω₀</text>

  <text x="300" y="25" font-size="9" fill="#0969da">малое β</text>
  <text x="300" y="45" font-size="9" fill="#57ab5a">среднее β</text>
  <text x="300" y="65" font-size="9" fill="#e5534b">большое β</text>

  <circle cx="210" cy="20" r="4" fill="#0969da"/>
  <text x="135" y="20" font-size="9" fill="#0969da" font-weight="600">резонанс</text>
</svg>