<svg viewBox="0 0 420 140" width="420" height="140">
  <text x="10" y="20" font-size="12" fill="var(--text)" font-weight="bold">Контактная схема (Функция проводимости)</text>

  <line x1="20" y1="70" x2="60" y2="70" stroke="var(--text)" stroke-width="2"/>
  <circle cx="60" cy="70" r="4" fill="var(--text)"/>

  <path d="M 60 70 L 60 35 L 100 35" fill="none" stroke="var(--text)" stroke-width="2"/>
  <line x1="100" y1="35" x2="135" y2="15" stroke="#0969da" stroke-width="2.5"/> <path d="M 140 35 L 180 35 L 180 70" fill="none" stroke="var(--text)" stroke-width="2"/>
  <circle cx="100" cy="35" r="3" fill="#0969da"/>
  <circle cx="140" cy="35" r="3" fill="#0969da"/>
  <text x="110" y="25" font-size="14" fill="#0969da" font-weight="bold">x₁</text>

  <path d="M 60 70 L 60 105 L 100 105" fill="none" stroke="var(--text)" stroke-width="2"/>
  <line x1="100" y1="105" x2="135" y2="85" stroke="#e5534b" stroke-width="2.5"/> <path d="M 140 105 L 180 105 L 180 70" fill="none" stroke="var(--text)" stroke-width="2"/>
  <circle cx="100" cy="105" r="3" fill="#e5534b"/>
  <circle cx="140" cy="105" r="3" fill="#e5534b"/>
  <text x="110" y="125" font-size="14" fill="#e5534b" font-weight="bold">x₂</text>

  <circle cx="180" cy="70" r="4" fill="var(--text)"/>

  <line x1="180" y1="70" x2="220" y2="70" stroke="var(--text)" stroke-width="2"/>
  <line x1="220" y1="70" x2="255" y2="50" stroke="#2da44e" stroke-width="2.5"/> <line x1="260" y1="70" x2="300" y2="70" stroke="var(--text)" stroke-width="2"/>
  <circle cx="220" cy="70" r="3" fill="#2da44e"/>
  <circle cx="260" cy="70" r="3" fill="#2da44e"/>
  <text x="230" y="90" font-size="14" fill="#2da44e" font-weight="bold">x₃</text>

  <rect x="280" y="100" width="130" height="30" rx="4" fill="rgba(128,128,128,0.08)" stroke="var(--text2)" stroke-width="1.5"/>
  <text x="290" y="120" font-size="12" fill="var(--text)" font-weight="bold">f = (x₁ ∨ x₂) ∧ x₃</text>
</svg>